<?xml version="1.0" encoding="utf-8"?>
<!-- Generator: Adobe Illustrator 23.0.0, SVG Export Plug-In . SVG Version: 6.00 Build 0)  -->
<svg version="1.1" id="图层_1" xmlns="http://www.w3.org/2000/svg" xmlns:xlink="http://www.w3.org/1999/xlink" x="0px" y="0px"
	 viewBox="0 0 70 70" style="enable-background:new 0 0 70 70;" xml:space="preserve">
<style type="text/css">
	.st0{fill:#7AA3CC;}
	.st1{fill:#FFFFFF;}
</style>
<circle class="st0" cx="35" cy="35" r="35"/>
<path class="st1" d="M48.299,56.209C44.919,54.223,42,52.507,42,50.5V47c0-0.042-0.014-0.079-0.024-0.118
	c2.089-2.223,3.698-5.233,4.725-8.352c0.113,0.017,0.224,0.051,0.339,0.051c0.741,0,1.503-0.351,2.203-1.025
	c0.759-0.732,1.392-1.792,1.736-2.908c0.658-2.134-0.279-3.992-2.331-4.625c-0.129-0.042-0.26-0.025-0.371,0.03
	c2.247-8.699-2.733-15.418-9.098-17.656c-4.937-1.735-11.312-0.788-13.85,5.313c-2.38-0.13-4.124,0.598-5.183,2.171
	c-1.907,2.829-0.904,7.629-0.144,9.234c0.002,0.295,0.009,0.592,0.023,0.891c-0.057-0.003-0.115,0-0.173,0.018
	c-2.052,0.633-2.988,2.491-2.331,4.625c0.344,1.116,0.977,2.176,1.736,2.908c0.699,0.675,1.461,1.025,2.203,1.025
	c0.144,0,0.284-0.038,0.425-0.064c1.24,3.206,3.023,6.152,5.147,8.32C27.015,46.889,27,46.942,27,47v3.5
	c0,1.989-2.759,3.566-5.955,5.392c-2.854,1.63-6.074,3.479-8.289,6.131c0.257,0.212,0.523,0.414,0.787,0.618
	c2.101-2.503,5.227-4.298,7.999-5.882C25.007,54.78,28,53.07,28,50.5v-2.756c1.973,1.713,4.186,2.756,6.5,2.756
	c2.451,0,4.636-1.027,6.5-2.672V50.5c0,2.579,3.147,4.429,6.792,6.571c2.828,1.661,6.012,3.544,8.107,6.005
	c0.268-0.2,0.527-0.41,0.789-0.617C54.484,59.855,51.207,57.918,48.299,56.209z M48.082,30.764c0.061,0.097,0.152,0.177,0.27,0.214
	c1.526,0.471,2.167,1.764,1.669,3.375c-0.292,0.945-0.842,1.874-1.474,2.483c-0.383,0.37-0.941,0.758-1.55,0.739
	c0.647-2.233,0.993-4.483,1.001-6.505C48.032,30.967,48.051,30.867,48.082,30.764z M20.976,20.438
	c0.895-1.329,2.457-1.905,4.638-1.706c0.229,0.019,0.433-0.111,0.512-0.32c2.212-5.815,7.984-6.737,12.722-5.072
	c5.715,2.01,10.634,7.913,8.524,16.301c-1.863-3.24-5.269-5.813-8.997-6.717c-0.962-0.233-1.909-0.348-2.83-0.348
	c-2.231,0-4.301,0.677-6.015,1.993c-5.85-1.535-7.898,1.194-8.958,3.184C20.042,25.907,19.597,22.483,20.976,20.438z M19.952,36.836
	c-0.632-0.609-1.183-1.538-1.474-2.483c-0.491-1.591,0.131-2.868,1.616-3.353c0.195,2.185,0.697,4.426,1.446,6.577
	C20.915,37.613,20.343,37.214,19.952,36.836z M34.5,49.5c-7.114,0-13.445-11.368-13.498-20.386l0.129-0.257
	c0.97-1.955,2.435-4.907,8.376-3.258c0.155,0.046,0.323,0.01,0.449-0.093c2.2-1.784,5.105-2.354,8.182-1.61
	c3.838,0.93,7.3,3.759,8.859,7.219C46.947,38.48,41.976,49.5,34.5,49.5z"/>
</svg>
